<svg width="385" height="721" viewBox="0 0 385 721" fill="none" xmlns="http://www.w3.org/2000/svg">
<g clip-path="url(#clip0_108_110)">
<path d="M155.292 -0.0078125C160.771 2.58414 163.111 6.80993 163.587 13.0831C165.447 37.4326 167.78 61.7452 169.94 86.0679C172.081 110.202 174.292 134.333 176.346 158.475C178.56 184.535 181.042 210.583 182.633 236.684C183.987 258.966 177.064 279.106 162.515 295.667C154.094 305.248 151.056 315.125 151.434 327.815C152.271 355.91 151.765 384.048 151.583 412.167C151.537 415.76 150.673 419.294 149.058 422.491C123.248 472.124 97.3354 521.702 71.3187 571.224C70.326 573.09 68.9065 574.922 68.6219 576.895C68.291 579.124 68.3638 582.042 69.5649 583.649C70.4749 584.869 73.8665 585.431 75.4085 584.681C81.1692 581.86 86.9896 578.882 92.1316 575.066C125.36 550.465 151.434 519.102 173.607 484.274C181.809 471.388 188.996 457.827 196.411 444.437C201.934 434.465 203.625 423.593 203.516 412.19C203.476 408.011 204.621 403.527 206.318 399.684C209.488 392.51 213.267 385.585 217.238 378.817C218.26 377.066 220.877 375.203 222.76 375.197C272.03 375.005 321.296 375.052 370.565 375.076C371.293 375.076 372.021 375.298 373.596 375.553C372.425 377.812 371.475 379.755 370.43 381.645C341.179 434.656 311.903 487.644 282.602 540.608C280.345 544.672 280.457 547.53 282.899 551.47C315.887 604.701 348.766 657.998 381.538 711.361C382.613 713.105 383.606 714.904 385.002 717.308C382.553 717.429 380.753 717.594 378.957 717.597C331.391 717.597 283.829 717.526 236.267 717.731C231.585 717.751 229.256 716.034 227.002 712.161C203.619 672.142 180.132 632.185 156.539 592.289C155.398 590.349 154.173 588.46 151.698 586.664V592.558C151.698 630.882 151.698 669.207 151.698 707.532C151.698 717.432 148.161 720.979 138.307 720.979C104.958 720.979 71.6076 720.979 38.2562 720.979C29.0905 720.979 25.5666 717.499 25.2654 708.204C25.1893 705.894 25.239 703.581 25.239 701.269C25.239 570.689 25.2478 440.109 25.2654 309.527C25.2654 305.009 24.8022 301.079 21.576 297.317C2.64583 275.254 -2.44326 249.378 1.03108 220.86C3.46973 200.83 4.7172 180.649 6.50069 160.539C8.62059 136.605 10.7438 112.673 12.8703 88.7439C14.9582 64.7944 17.0461 40.8449 18.962 16.8819C19.5278 9.79858 19.9547 2.91024 27.9291 0.0157226H31.3406C37.3694 2.80602 38.8121 7.62349 38.4415 14.0882C37.2668 34.6322 36.6216 55.2065 35.6521 75.764C34.7851 94.19 33.7164 112.613 32.8163 131.062C31.5126 157.379 30.1494 183.691 29.0707 210.018C28.7067 218.839 34.4576 225.344 41.8265 225.455C48.9571 225.563 55.158 218.859 55.3929 210.529C57.3022 145.145 59.2643 79.7544 60.9221 14.3706C61.0942 7.68064 62.9074 2.90351 68.8634 -0.00108745H72.2749C78.3368 2.48329 80.3519 7.01164 80.2692 13.6142C79.4839 77.3474 78.8376 141.083 78.3302 204.82C78.3004 208.075 78.3765 211.403 79.0118 214.57C80.2792 220.92 86.3907 225.778 92.0323 225.371C98.0314 224.941 103.359 219.918 104.275 213.554C104.636 211.097 104.606 208.565 104.606 206.068C104.083 142.142 103.505 78.2136 102.872 14.2832C102.799 7.95967 104.047 3.03799 109.821 -0.00108745H114.371C120.509 2.92032 122.008 8.2387 122.16 14.6093C123.311 62.6966 124.538 110.784 125.839 158.871C126.299 175.986 126.832 193.104 127.633 210.209C128.076 219.589 134.638 226.188 141.974 225.418C149.68 224.611 154.388 217.4 153.905 207.98C152.066 172.06 150.385 136.132 148.631 100.208C147.231 71.5852 145.984 42.9494 144.277 14.3437C143.866 7.49238 145.736 2.80266 151.887 -0.00108745L155.292 -0.0078125Z" fill="#32347C"/>
</g>
<defs>
<clipPath id="clip0_108_110">
<rect width="385" height="721" fill="white"/>
</clipPath>
</defs>
</svg>
