<svg width="39" height="73" viewBox="0 0 39 73" fill="none" xmlns="http://www.w3.org/2000/svg">
<g clip-path="url(#clip0_108_80)">
<path d="M15.7309 -0.000790596C16.286 0.26164 16.5229 0.689494 16.5712 1.32464C16.7596 3.78999 16.9959 6.2516 17.2148 8.71423C17.4316 11.1578 17.6555 13.601 17.8637 16.0453C18.0879 18.6839 18.3393 21.3211 18.5005 23.9638C18.6376 26.2198 17.9364 28.259 16.4626 29.9357C15.6095 30.9058 15.3018 31.9058 15.3401 33.1907C15.4249 36.0353 15.3736 38.8842 15.3551 41.7312C15.3506 42.095 15.263 42.4528 15.0994 42.7765C12.4849 47.8018 9.85997 52.8214 7.22451 57.8354C7.12395 58.0243 6.98016 58.2098 6.95133 58.4096C6.91781 58.6353 6.92519 58.9308 7.04686 59.0935C7.13904 59.217 7.4826 59.2738 7.6388 59.1979C8.22236 58.9124 8.81195 58.6108 9.33283 58.2245C12.6988 55.7336 15.3401 52.5582 17.5861 49.0319C18.4171 47.7272 19.1451 46.3542 19.8962 44.9984C20.4557 43.9889 20.627 42.8881 20.6159 41.7335C20.6119 41.3104 20.7278 40.8564 20.8998 40.4673C21.2209 39.741 21.6037 39.0398 22.0059 38.3546C22.1095 38.1773 22.3746 37.9887 22.5653 37.988C27.5563 37.9686 32.5469 37.9734 37.5378 37.9758C37.6115 37.9758 37.6853 37.9982 37.8448 38.0241C37.7262 38.2528 37.63 38.4496 37.5241 38.6409C34.561 44.0082 31.5954 49.3731 28.6272 54.7356C28.3986 55.1471 28.41 55.4364 28.6574 55.8354C31.999 61.2249 35.3296 66.6211 38.6493 72.024C38.7582 72.2007 38.8588 72.3828 39.0002 72.6262C38.7522 72.6384 38.5698 72.6551 38.3878 72.6554C33.5695 72.6554 28.7516 72.6483 23.9336 72.6691C23.4593 72.6711 23.2233 72.4972 22.9951 72.105C20.6264 68.0532 18.2471 64.0076 15.8572 59.9682C15.7416 59.7718 15.6176 59.5805 15.3669 59.3988V59.9955C15.3669 63.8758 15.3669 67.756 15.3669 71.6363C15.3669 72.6388 15.0086 72.9979 14.0104 72.9979C10.6321 72.9979 7.25378 72.9979 3.87532 72.9979C2.94685 72.9979 2.58988 72.6456 2.55938 71.7044C2.55167 71.4706 2.5567 71.2364 2.5567 71.0022C2.5567 57.7813 2.55759 44.5603 2.55938 31.3391C2.55938 30.8816 2.51245 30.4837 2.18564 30.1028C0.26804 27.869 -0.247478 25.2491 0.104468 22.3616C0.351501 20.3337 0.477867 18.2904 0.658533 16.2543C0.873276 13.831 1.08835 11.408 1.30377 8.98517C1.51527 6.56032 1.72677 4.13547 1.92085 1.70926C1.97816 0.99209 2.0214 0.294657 2.8292 0.00159229H3.17478C3.78549 0.284105 3.93163 0.771865 3.89409 1.42641C3.7751 3.50646 3.70974 5.58956 3.61153 7.67097C3.52371 9.53658 3.41545 11.4018 3.32427 13.2698C3.19221 15.9343 3.05411 18.5984 2.94484 21.2639C2.90797 22.1571 3.49053 22.8157 4.23699 22.8269C4.95932 22.8378 5.58746 22.1591 5.61125 21.3157C5.80466 14.6957 6.00342 8.075 6.17135 1.455C6.18878 0.777652 6.37246 0.293976 6.9758 -0.000109696H7.32138C7.93544 0.251429 8.13957 0.709917 8.13119 1.37842C8.05164 7.83129 7.98617 14.2844 7.93477 20.7377C7.93175 21.0672 7.93946 21.4042 8.00382 21.7248C8.13219 22.3678 8.75128 22.8596 9.32278 22.8184C9.93047 22.7749 10.4701 22.2663 10.563 21.622C10.5995 21.3732 10.5965 21.1169 10.5965 20.864C10.5435 14.3916 10.485 7.91899 10.4208 1.44615C10.4135 0.805903 10.5398 0.307591 11.1247 -0.000109696H11.5856C12.2074 0.295678 12.3592 0.834154 12.3747 1.47917C12.4913 6.34792 12.6155 11.2167 12.7474 16.0854C12.794 17.8183 12.8479 19.5515 12.9291 21.2833C12.974 22.233 13.6386 22.9011 14.3818 22.8232C15.1624 22.7415 15.6394 22.0114 15.5904 21.0577C15.4041 17.4207 15.2338 13.7831 15.0562 10.1459C14.9144 7.24788 14.788 4.34855 14.615 1.45228C14.5735 0.758591 14.7629 0.283765 15.386 -0.000109696L15.7309 -0.000790596Z" fill="#ED3F25"/>
</g>
<defs>
<clipPath id="clip0_108_80">
<rect width="39" height="73" fill="white"/>
</clipPath>
</defs>
</svg>
